<?xml version="1.0" encoding="utf-8"?>
<!-- Generator: Adobe Illustrator 15.0.0, SVG Export Plug-In . SVG Version: 6.00 Build 0)  -->
<!DOCTYPE svg PUBLIC "-//W3C//DTD SVG 1.1//EN" "http://www.w3.org/Graphics/SVG/1.1/DTD/svg11.dtd">
<svg version="1.1" id="Layer_1" xmlns="http://www.w3.org/2000/svg" xmlns:xlink="http://www.w3.org/1999/xlink" x="0px" y="0px"
	 width="164.667px" height="222px" viewBox="0 0 164.667 222" enable-background="new 0 0 164.667 222" xml:space="preserve">
<g>
	<g>
		<path fill="#6E8E78" d="M42.646,45.6c16.604-3.332,34.174,2.778,48.129,11.548c15.692,9.863,28.054,25.367,31.92,43.681
			c4.664,22.096-5.562,43.711-19.736,60.106c-15.965,18.467-37.937,32.031-60.453,40.988c-2.217,0.882-0.191,2.046,1.357,1.431
			c39.185-15.588,87.989-50.933,82.98-98.788c-3.691-35.27-42.251-63.66-76.761-61.728c-2.669,0.149-5.282,0.5-7.901,1.025
			C40.077,44.287,40.591,46.013,42.646,45.6L42.646,45.6z"/>
	</g>
</g>
<g>
	<g>
		<path fill="#6E8E78" d="M53.077,176.661c-4.509,8.47-9.861,16.6-12.361,25.958c-0.102,0.382,0.322,0.539,0.623,0.567
			c11.637,1.118,23.288,0.963,34.961,0.683c1.097-0.026,3.69-1.733,1.398-1.678c-10.761,0.259-21.503,0.435-32.242-0.458
			c-2.537-0.211,3.289-11.415,3.908-12.619c2.254-4.381,4.792-8.613,7.107-12.962C56.874,175.397,53.592,175.695,53.077,176.661
			L53.077,176.661z"/>
	</g>
</g>
<rect x="18.383" y="18.732" fill="none" width="132.5" height="46.5"/>
<text transform="matrix(1 0 0 1 18.3828 33.4912)" fill="#6E8E78" stroke="#6E8E78" stroke-width="0.5" font-family="'JustTheWayYouAre'" font-size="17">hover over me!</text>
</svg>
